<?xml version="1.0" encoding="UTF-8" standalone="no"?>
<svg width="15px" height="18px" viewBox="0 0 15 18" version="1.1" xmlns="http://www.w3.org/2000/svg" xmlns:xlink="http://www.w3.org/1999/xlink" xmlns:sketch="http://www.bohemiancoding.com/sketch/ns">
    <!-- Generator: Sketch 3.3.3 (12081) - http://www.bohemiancoding.com/sketch -->
    <title>flash-card-app-sprites</title>
    <desc>Created with Sketch.</desc>
    <defs></defs>
    <g id="Page-1" stroke="none" stroke-width="1" fill="none" fill-rule="evenodd" sketch:type="MSPage">
        <g id="Shape-+-Shape" sketch:type="MSLayerGroup" transform="translate(1.000000, 1.000000)" stroke="#756084">
            <path d="M7.04334365,0 L7.04334365,2 L4.98065015,2 C4.98065015,2 0,2.94 0,8 C0,8 1.05650155,5 5.03095975,5 L7.04334365,5 L7.04334365,7 L13,3.45 L7.04334365,0 L7.04334365,0 Z" id="Shape" sketch:type="MSShapeGroup"></path>
            <path d="M5.95665635,16 L5.95665635,14 L8.01934985,14 C8.01934985,14 13,13.06 13,8 C13,8 11.9535604,11 7.96904025,11 L5.95665635,11 L5.95665635,9 L0,12.55 L5.95665635,16 L5.95665635,16 Z" id="Shape" sketch:type="MSShapeGroup"></path>
        </g>
    </g>
</svg>