<?xml version="1.0" encoding="UTF-8" standalone="no"?>
<svg width="10px" height="15px" viewBox="0 0 10 15" version="1.1" xmlns="http://www.w3.org/2000/svg" xmlns:xlink="http://www.w3.org/1999/xlink" xmlns:sketch="http://www.bohemiancoding.com/sketch/ns">
    <!-- Generator: Sketch 3.3.3 (12081) - http://www.bohemiancoding.com/sketch -->
    <title>flash-card-app-sprites</title>
    <desc>Created with Sketch.</desc>
    <defs></defs>
    <g id="Page-1" stroke="none" stroke-width="1" fill="none" fill-rule="evenodd" sketch:type="MSPage">
        <g id="Shape-+-Shape" sketch:type="MSLayerGroup" fill="#756084">
            <path d="M0,6.25 L0,11.25 C0,13.125 1.875,15 3.75,15 L6.25,15 C8.125,15 10,13.125 10,11.25 L10,6.25 L0,6.25 L0,6.25 Z M3.75,9.375 C3.75,9.025 4.025,8.75 4.375,8.75 L5.625,8.75 C5.975,8.75 6.25,9.025 6.25,9.375 L6.25,11.875 C6.25,12.225 5.975,12.5 5.625,12.5 L4.375,12.5 C4.025,12.5 3.75,12.225 3.75,11.875 L3.75,9.375 L3.75,9.375 Z" id="Shape" sketch:type="MSShapeGroup"></path>
            <path d="M1.25,3.75 L1.25,6.25 L2.5,6.25 L2.5,4.25 C2.5,2.5875 3.625,1.25 5,1.25 C6.375,1.25 7.5,2.5875 7.5,4.25 L7.5,6.25 L8.75,6.25 L8.75,3.75 C8.75,1.675 7.075,0 5,0 C2.925,0 1.25,1.675 1.25,3.75 L1.25,3.75 Z" id="Shape" sketch:type="MSShapeGroup"></path>
        </g>
    </g>
</svg>