<?xml version="1.0" encoding="UTF-8" standalone="no"?>
<svg width="217px" height="215px" viewBox="0 0 217 215" version="1.1" xmlns="http://www.w3.org/2000/svg" xmlns:xlink="http://www.w3.org/1999/xlink" xmlns:sketch="http://www.bohemiancoding.com/sketch/ns">
    <!-- Generator: Sketch 3.3.3 (12081) - http://www.bohemiancoding.com/sketch -->
    <title>flash-card-app-sprites</title>
    <desc>Created with Sketch.</desc>
    <defs></defs>
    <g id="Page-1" stroke="none" stroke-width="1" fill="none" fill-rule="evenodd" sketch:type="MSPage">
        <path d="M48.4002612,173.4 L49,174 L49.5997388,173.4 C50.6092992,172.42 52.228594,171 54.4076451,169.58 C58.3159432,167.04 57.7162044,161 53.2081675,161 C50.8092121,161 49.6097345,162.23 49,163.18 C48.3902655,162.23 47.1907879,161 44.7918325,161 C40.2837956,161 39.6840568,167.04 43.5923549,169.58 C45.771406,171 47.3907008,172.42 48.4002612,173.4 L48.4002612,173.4 Z" id="Shape" fill="#756084" sketch:type="MSShapeGroup"></path>
        <path d="M8.40026117,213.4 L9,214 L9.59973883,213.4 C10.6092992,212.42 12.228594,211 14.4076451,209.58 C18.3159432,207.04 17.7162044,201 13.2081675,201 C10.8092121,201 9.60973448,202.23 9,203.18 C8.39026552,202.23 7.19078786,201 4.79183253,201 C0.283795635,201 -0.315943198,207.04 3.59235486,209.58 C5.77140595,211 7.3907008,212.42 8.40026117,213.4 L8.40026117,213.4 Z" id="Shape-Copy" stroke="#756084" sketch:type="MSShapeGroup"></path>
        <g id="Shape-+-Shape" sketch:type="MSLayerGroup" transform="translate(123.000000, 80.000000)" fill="#756085">
            <path d="M7.04334365,0 L7.04334365,2 L4.98065015,2 C4.98065015,2 0,2.94 0,8 C0,8 1.05650155,5 5.03095975,5 L7.04334365,5 L7.04334365,7 L13,3.45 L7.04334365,0 L7.04334365,0 Z" id="Shape" sketch:type="MSShapeGroup"></path>
            <path d="M5.95665635,15 L5.95665635,13 L8.01934985,13 C8.01934985,13 13,12.06 13,7 C13,7 11.9535604,10 7.96904025,10 L5.95665635,10 L5.95665635,8 L0,11.55 L5.95665635,15 L5.95665635,15 Z" id="Shape" sketch:type="MSShapeGroup"></path>
        </g>
        <g id="Shape-+-Shape" sketch:type="MSLayerGroup" transform="translate(83.000000, 119.000000)" stroke="#756084">
            <path d="M7.04334365,0 L7.04334365,2 L4.98065015,2 C4.98065015,2 0,2.94 0,8 C0,8 1.05650155,5 5.03095975,5 L7.04334365,5 L7.04334365,7 L13,3.45 L7.04334365,0 L7.04334365,0 Z" id="Shape" sketch:type="MSShapeGroup"></path>
            <path d="M5.95665635,16 L5.95665635,14 L8.01934985,14 C8.01934985,14 13,13.06 13,8 C13,8 11.9535604,11 7.96904025,11 L5.95665635,11 L5.95665635,9 L0,12.55 L5.95665635,16 L5.95665635,16 Z" id="Shape" sketch:type="MSShapeGroup"></path>
        </g>
        <g id="Shape-+-Shape" sketch:type="MSLayerGroup" transform="translate(164.000000, 40.000000)" stroke="#756084">
            <path d="M0,6.25 L0,11.25 C0,13.125 1.875,15 3.75,15 L6.25,15 C8.125,15 10,13.125 10,11.25 L10,6.25 L0,6.25 L0,6.25 Z M3.75,9.375 C3.75,9.025 4.025,8.75 4.375,8.75 L5.625,8.75 C5.975,8.75 6.25,9.025 6.25,9.375 L6.25,11.875 C6.25,12.225 5.975,12.5 5.625,12.5 L4.375,12.5 C4.025,12.5 3.75,12.225 3.75,11.875 L3.75,9.375 L3.75,9.375 Z" id="Shape" sketch:type="MSShapeGroup"></path>
            <path d="M1.25,3.75 L1.25,6.25 L2.5,6.25 L2.5,4.25 C2.5,2.5875 3.625,1.25 5,1.25 C6.375,1.25 7.5,2.5875 7.5,4.25 L7.5,6.25 L8.75,6.25 L8.75,3.75 C8.75,1.675 7.075,0 5,0 C2.925,0 1.25,1.675 1.25,3.75 L1.25,3.75 Z" id="Shape" sketch:type="MSShapeGroup"></path>
        </g>
        <g id="Shape-+-Shape" sketch:type="MSLayerGroup" transform="translate(201.000000, 0.000000)" fill="#756084">
            <path d="M5.33333333,6.25 L5.33333333,11.25 C5.33333333,13.125 7.33333333,15 9.33333333,15 L12,15 C14,15 16,13.125 16,11.25 L16,6.25 L5.33333333,6.25 L5.33333333,6.25 Z M9.33333333,9.375 C9.33333333,9.025 9.62666667,8.75 10,8.75 L11.3333333,8.75 C11.7066667,8.75 12,9.025 12,9.375 L12,11.875 C12,12.225 11.7066667,12.5 11.3333333,12.5 L10,12.5 C9.62666667,12.5 9.33333333,12.225 9.33333333,11.875 L9.33333333,9.375 L9.33333333,9.375 Z" id="Shape" sketch:type="MSShapeGroup"></path>
            <path d="M0,3.75 L0,6.25 L1.33333333,6.25 L1.33333333,4.25 C1.33333333,2.5875 2.53333333,1.25 4,1.25 C5.46666667,1.25 6.66666667,2.5875 6.66666667,4.25 L6.66666667,6.25 L8,6.25 L8,3.75 C8,1.675 6.21333333,0 4,0 C1.78666667,0 0,1.675 0,3.75 L0,3.75 Z" id="Shape" sketch:type="MSShapeGroup"></path>
        </g>
    </g>
</svg>